# AST/ASF file generated using VICON BodyLanguage
# -----------------------------------------------
:version 1.10
:name VICON
:units
  mass 1.0
  length 0.45
  angle deg
:documentation
   .ast/.asf automatically generated from VICON data using
   VICON BodyBuilder and BodyLanguage model FoxedUp or BRILLIANT.MOD
:root
   order TX TY TZ RX RY RZ
   axis XYZ
   position 0 0 0  
   orientation 0 0 0 
:bonedata
  begin
     id 1 
     name lhipjoint
     direction 0.573633 -0.743009 0.344793 
     length 2.46257 
     axis 0 0 0  XYZ
  end
  begin
     id 2 
     name lfemur
     direction 0.34202 -0.939693 0  
     length 7.3842  
     axis 0 0 20  XYZ
    dof rx ry rz
    limits (-160.0 20.0)
           (-70.0 70.0)
           (-60.0 70.0)
  end
  begin
     id 3 
     name ltibia
     direction 0.34202 -0.939693 0   
     length 7.50407   
     axis 0 0 20   XYZ
    dof rx
    limits (-10.0 170.0)
  end
  begin
     id 4 
     name lfoot
     direction 0.110749 -0.304281 0.946123   
     length 1.95925   
     axis -90 7.62852e-016 20   XYZ
    dof rx rz
    limits (-45.0 90.0)
           (-70.0 20.0)
  end
  begin
     id 5 
     name ltoes
     direction 1.53554e-011 -4.21843e-011 1   
     length 0.978318   
     axis -90 7.62852e-016 20   XYZ
    dof rx
    limits (-90.0 20.0)
  end
  begin
     id 6 
     name rhipjoint
     direction -0.488109 -0.791693 0.367385   
     length 2.31113  
     axis 0 0 0  XYZ 
  end
  begin
     id 7 
     name rfemur
     direction -0.34202 -0.939693 0   
     length 7.40965   
     axis 0 0 -20   XYZ
    dof rx ry rz
    limits (-160.0 20.0)
           (-70.0 70.0)
           (-70.0 60.0)
  end
  begin
     id 8 
     name rtibia
     direction -0.34202 -0.939693 0   
     length 7.55548   
     axis 0 0 -20   XYZ
    dof rx
    limits (-10.0 170.0)
 end
 begin
     id 9 
     name rfoot
     direction -0.127594 -0.350561 0.927808   
     length 2.07199  
     axis -90 -7.62852e-016 -20   XYZ
    dof rx rz
    limits (-45.0 90.0)
           (-20.0 70.0)
  end
  begin
     id 10 
     name rtoes
     direction -1.53542e-011 -4.21909e-011 1   
     length 1.02667   
     axis -90 -7.62852e-016 -20   XYZ
    dof rx
    limits (-90.0 20.0)
  end
  begin
     id 11 
     name lowerback
     direction -0.0103342 0.997298 -0.0727278   
     length 2.02836   
     axis 0 0 0   XYZ
    dof rx ry rz
    limits (-20.0 45.0)
           (-30.0 30.0)
           (-30.0 30.0)
  end
  begin
     id 12 
     name upperback
     direction 0.0171146 0.999786 -0.011606   
     length 2.03179   
     axis 0 0 0   XYZ
    dof rx ry rz
    limits (-20.0 45.0)
           (-30.0 30.0)
           (-30.0 30.0)
  end
  begin
     id 13 
     name thorax
     direction 0.0216927 0.999513 0.0224343   
     length 2.03882   
     axis 0 0 0   XYZ
    dof rx ry rz
    limits (-20.0 45.0)
           (-30.0 30.0)
           (-30.0 30.0)
  end
  begin
     id 14 
     name lowerneck
     direction 0.000989287 0.993907 0.110221   
     length 1.75428   
     axis 0 0 0   XYZ
    dof rx ry rz
    limits (-20.0 45.0)
           (-30.0 30.0)
           (-30.0 30.0)
  end
  begin
     id 15 
     name upperneck
     direction -0.0172474 0.994813 -0.100253   
     length 1.77058   
     axis 0 0 0   XYZ
    dof rx ry rz
    limits (-20.0 45.0)
           (-30.0 30.0)
           (-30.0 30.0)
  end
  begin
     id 16
     name head
     direction -0.00486455 0.99894 -0.0457663  
     length 1.77427  
     axis 0 0 0   XYZ
    dof rx ry rz
    limits (-20.0 45.0)
           (-30.0 30.0)
           (-30.0 30.0)
  end
  begin
     id 17 
     name lclavicle
     direction 0.927314 0.333734 -0.169441  
     length 3.97584  
     axis 0 0 0   XYZ
    dof ry rz
    limits (-20.0 10.0)
           (0.0 20.0)
  end
  begin
     id 18 
     name lhumerus
     direction 1 -4.48965e-011 -3.25313e-028   
     length 4.76468   
     axis 180 -30 -90   XYZ
    dof rx ry rz
    limits (-60.0 90.0)
           (-90.0 90.0)
           (-90.0 90.0)
  end
  begin
     id 19
     name lradius
     direction 1 -4.48969e-011 -2.8465e-028   
     length 3.52712   
     axis -180 -30 -90   XYZ
    dof rx
    limits (-10.0 170.0)
  end
  begin
     id 20
     name lwrist
     direction 1 -4.4896e-011 -7.78665e-028   
     length 1.76356   
     axis 1.91374e-015 90 90   XYZ
    dof ry
    limits (-180.0 0.0)
 end
  begin
     id 21 
     name lhand
     direction 1 -4.48959e-011 -1.55733e-027   
     length 0.859564   
     axis 9.9371e-016 90 90   XYZ
    dof rx rz
    limits (-90.0 90.0)
           (-45.0 45.0)
  end
  begin
     id 22 
     name lfingers
     direction 1 -4.48965e-011 -3.11466e-027   
     length 0.693002   
     axis 1.98742e-015 90 90   XYZ
    dof rx
    limits (0.0 90.0)
  end
  begin
     id 23
     name lthumb
     direction 0.707107 -6.34948e-011 0.707107   
     length 0.995017   
     axis -90 45 2.85299e-015   XYZ
    dof rx rz
    limits (-45.0 45.0)
           (-45.0 45.0)
  end
  begin
     id 24 
     name rclavicle
     direction -0.899388 0.348209 -0.264294   
     length 3.68366  
     axis 0 0 0   XYZ 
    dof ry rz
    limits (-10.0 20.0)
           (-20.0 0.0)
  end
  begin
     id 25 
     name rhumerus
     direction -1 -4.48965e-011 -3.01536e-027  
     length 4.90577   
     axis 180 30 90   XYZ
    dof rx ry rz
    limits (-90.0 60.0)
           (-90.0 90.0)
           (-90.0 90.0)
  end
  begin
     id 26 
     name rradius
     direction -1 -4.48966e-011 3.93291e-027   
     length 3.42692   
     axis -180 30 90   XYZ
    dof rx
    limits (-10.0 170.0)
  end
  begin
     id 27 
     name rwrist
     direction -1 -4.48969e-011 -7.78665e-028   
     length 1.71346   
     axis 1.91374e-015 -90 -90   XYZ
    dof ry
    limits (-180.0 0.0)
  end
  begin
     id 28
     name rhand
     direction -1 -4.48967e-011 -1.55733e-027   
     length 0.740957   
     axis 9.9371e-016 -90 -90   XYZ
    dof rx rz
    limits (-90.0 90.0)
           (-45.0 45.0)
  end
  begin
     id 29
     name rfingers
     direction -1 -4.48949e-011 -3.11466e-027   
     length 0.597378   
     axis 1.98742e-015 -90 -90   XYZ
    dof rx
    limits (0.0 90.0)
  end
  begin
     id 30
     name rthumb
     direction -0.707107 -6.34931e-011 0.707107   
     length 0.857719   
     axis -90 -45 -2.85299e-015   XYZ
    dof rx rz
    limits (-45.0 45.0)
           (-45.0 45.0)
  end
:hierarchy
  begin
    root lhipjoint rhipjoint lowerback
    lhipjoint lfemur
    lfemur ltibia
    ltibia lfoot
    lfoot ltoes
    rhipjoint rfemur
    rfemur rtibia
    rtibia rfoot
    rfoot rtoes
    lowerback upperback
    upperback thorax
    thorax lowerneck lclavicle rclavicle
    lowerneck upperneck
    upperneck head
    lclavicle lhumerus
    lhumerus lradius
    lradius lwrist
    lwrist lhand lthumb
    lhand lfingers
    rclavicle rhumerus
    rhumerus rradius
    rradius rwrist
    rwrist rhand rthumb
    rhand rfingers
  end

#!OML:ASF I:\AllaLogoMonkeySwing\Project 1\Capture day 1\Session 1\Subject1.ASF
:FULLY-SPECIFIED
:DEGREES
176
root -4.65577 17.8107 -16.1683 5.20698 -4.94958 -0.367646
lowerback 9.42205 0.706424 -4.42276
upperback -0.185853 0.562998 2.01706
thorax -5.55615 0.431307 4.5373
lowerneck -14.0929 2.16436 0.0665689
upperneck 12.7972 3.02902 -0.72385
head 6.20987 1.40969 0.0423073
rclavicle -2.18663e-015 2.50469e-014
rhumerus -30.2471 -10.4891 -84.1912
rradius 36.1623
rwrist -3.38237
rhand -8.49438 -39.4842
rfingers 7.12502
rthumb 17.4331 -68.7225
lclavicle -2.18663e-015 2.50469e-014
lhumerus -40.7482 11.4007 88.0089
lradius 51.5087
lwrist 2.3978
lhand -8.18296 -15.0304
lfingers 7.12502
lthumb 17.7328 14.1811
rfemur -11.5882 1.75728 19.9545
rtibia 29.0137
rfoot -21.8295 0.211747
rtoes 19.3158
lfemur -4.42417 4.32913 -23.6464
ltibia 19.5
lfoot -20.0424 2.97903
ltoes -24.9676
177
root -4.64422 17.8103 -16.1537 5.44124 -5.2833 -0.260497
lowerback 9.47092 0.739591 -4.5556
upperback -0.160434 0.590965 2.02455
thorax -5.56191 0.448561 4.61699
lowerneck -14.0096 2.25363 0.283654
upperneck 12.5388 3.1521 -1.0516
head 6.12323 1.45526 -0.0882143
rclavicle 3.37934e-015 6.36111e-015
rhumerus -30.348 -10.14 -84.3398
rradius 36.6639
rwrist -3.6779
rhand -8.55849 -39.7294
rfingers 7.12502
rthumb 17.3714 -68.9731
lclavicle 3.37934e-015 6.36111e-015
lhumerus -40.875 11.5193 87.6232
lradius 51.5146
lwrist 2.50657
lhand -8.55235 -14.8791
lfingers 7.12502
lthumb 17.3773 14.3641
rfemur -11.8584 1.9997 19.7513
rtibia 29.0726
rfoot -22.0037 0.418896
rtoes 21.446
lfemur -4.57846 4.18548 -23.8754
ltibia 19.4263
lfoot -19.9246 3.33784
ltoes -25.1963
178
root -4.6338 17.8097 -16.1398 5.6381 -5.56378 -0.266091
lowerback 9.60609 0.740334 -4.5863
upperback -0.129358 0.585405 2.0671
thorax -5.60572 0.447805 4.68066
lowerneck -13.8463 2.38616 0.460265
upperneck 12.2358 3.31901 -1.2386
head 6.00696 1.53261 -0.164626
rclavicle 2.17669e-014 2.38542e-014
rhumerus -30.4819 -9.80992 -84.4735
rradius 37.0862
rwrist -3.63244
rhand -8.25554 -40.065
rfingers 7.12502
rthumb 17.6629 -69.2827
lclavicle 2.17669e-014 2.38542e-014
lhumerus -41.1031 11.573 87.1858
lradius 51.4838
lwrist 2.79511
lhand -8.89733 -14.7056
lfingers 7.12502
lthumb 17.0453 14.5666
rfemur -12.0798 2.15598 19.683
rtibia 29.1276
rfoot -22.1043 0.667014
rtoes 22.731
lfemur -4.67044 4.08377 -23.9553
ltibia 19.3395
lfoot -19.7799 3.57673
ltoes -25.4326
179
root -4.62423 17.8098 -16.1245 5.83431 -5.78661 -0.349189
lowerback 9.75996 0.737124 -4.50871
upperback -0.0709066 0.586761 2.1181
thorax -5.63059 0.446356 4.69048
lowerneck -13.8921 2.43735 0.358275
upperneck 12.205 3.38525 -1.08689
head 6.00083 1.57199 -0.093692
rclavicle -2.16178e-014 -1.59028e-014
rhumerus -30.7007 -9.45529 -84.6064
rradius 37.5807
rwrist -3.58984
rhand -8.09689 -40.1585
rfingers 7.12502
rthumb 17.8156 -69.3624
lclavicle -2.16178e-014 -1.59028e-014
lhumerus -41.3215 11.4926 86.7412
lradius 51.3452
lwrist 3.15306
lhand -9.19856 -14.671
lfingers 7.12502
lthumb 16.7553 14.626
rfemur -12.2713 2.26353 19.7098
rtibia 29.1419
rfoot -22.1405 0.811313
rtoes 22.6245
lfemur -4.77831 4.11168 -23.9403
ltibia 19.2889
lfoot -19.7602 3.70999
ltoes -25.284
180
root -4.61445 17.81 -16.1069 6.09063 -5.95836 -0.453438
lowerback 9.86488 0.713825 -4.3726
upperback 0.011413 0.5704 2.16931
thorax -5.59979 0.432501 4.66948
lowerneck -13.8765 2.49747 0.336415
upperneck 11.965 3.45971 -1.03846
head 5.92131 1.61279 -0.0700473
rclavicle -9.93923e-015 -9.14409e-015
rhumerus -30.9604 -9.00932 -84.7416
rradius 38.1753
rwrist -3.90653
rhand -8.41325 -40.1256
rfingers 7.12502
rthumb 17.5112 -69.3569
lclavicle -9.93923e-015 -9.14409e-015
lhumerus -41.4705 11.5042 86.2818
lradius 51.1014
lwrist 3.32261
lhand -9.51178 -14.4688
lfingers 7.12502
lthumb 16.4537 14.8534
rfemur -12.5037 2.33233 19.7622
rtibia 29.1231
rfoot -22.1058 0.750442
rtoes 20.8023
lfemur -4.9643 4.1292 -23.8999
ltibia 19.2617
lfoot -19.7506 3.84347
ltoes -25.204
181
root -4.60508 17.8098 -16.0865 6.33577 -6.10465 -0.544288
lowerback 10.0086 0.692621 -4.19828
upperback 0.0934502 0.559752 2.21621
thorax -5.59137 0.421015 4.62138
lowerneck -13.8284 2.54109 0.223805
upperneck 11.6622 3.52775 -0.98014
head 5.81474 1.64781 -0.0303417
rclavicle -1.39149e-014 -2.46493e-014
rhumerus -31.3122 -8.66259 -84.8009
rradius 38.8372
rwrist -4.2274
rhand -8.73392 -40.186
rfingers 7.12502
rthumb 17.2026 -69.4445
lclavicle -1.39149e-014 -2.46493e-014
lhumerus -41.6364 11.4891 85.8391
lradius 50.8001
lwrist 3.33029
lhand -9.71628 -14.0904
lfingers 7.12502
lthumb 16.2569 15.2481
rfemur -12.7086 2.40987 19.8005
rtibia 29.1122
rfoot -22.0187 0.591207
rtoes 18.2754
lfemur -5.10934 4.17367 -23.8504
ltibia 19.2148
lfoot -19.7987 3.86925
ltoes -25.4976
182
root -4.59646 17.8109 -16.0643 6.61066 -6.23665 -0.530799
lowerback 10.1731 0.683124 -4.10787
upperback 0.13342 0.551436 2.21054
thorax -5.63969 0.414657 4.56535
lowerneck -13.7879 2.55761 0.231382
upperneck 11.4258 3.55598 -1.05835
head 5.73514 1.65784 -0.0561192
rclavicle -4.12478e-015 -1.66979e-014
rhumerus -31.7982 -8.27763 -84.8693
rradius 39.6134
rwrist -4.4913
rhand -8.83674 -40.4563
rfingers 7.12502
rthumb 17.1036 -69.7234
lclavicle -4.12478e-015 -1.66979e-014
lhumerus -41.9384 11.0892 85.4373
lradius 50.5497
lwrist 3.46579
lhand -9.89666 -13.752
lfingers 7.12502
lthumb 16.0832 15.6006
rfemur -12.9498 2.48294 19.7178
rtibia 29.1294
rfoot -22.0935 0.616958
rtoes 18.4046
lfemur -5.26226 4.20704 -23.9025
ltibia 19.1421
lfoot -19.9916 3.77957
ltoes -25.5603
183
root -4.58752 17.812 -16.0384 6.99456 -6.35984 -0.41332
lowerback 10.2306 0.643693 -4.14521
upperback 0.150094 0.490386 2.17458
thorax -5.64768 0.384894 4.55779
lowerneck -13.6795 2.60905 0.429583
upperneck 11.0818 3.61816 -1.32433
head 5.61788 1.67975 -0.17032
rclavicle -1.799e-014 -2.62396e-014
rhumerus -32.4594 -7.43991 -85.0237
rradius 40.6747
rwrist -4.92734
rhand -8.80192 -40.916
rfingers 7.12502
rthumb 17.1371 -70.1802
lclavicle -1.799e-014 -2.62396e-014
lhumerus -42.427 10.4778 85.0594
lradius 50.4404
lwrist 3.69862
lhand -10.0684 -13.4504
lfingers 7.12502
lthumb 15.9178 15.9154
rfemur -13.3266 2.50418 19.5089
rtibia 29.1768
rfoot -22.3118 0.874278
rtoes 20.0621
lfemur -5.54309 4.1457 -24.0837
ltibia 19.0601
lfoot -20.128 3.7347
ltoes -24.979
184
root -4.57849 17.8103 -16.0107 7.34294 -6.47032 -0.355164
lowerback 10.3156 0.57881 -4.15069
upperback 0.209204 0.401164 2.18763
thorax -5.62333 0.339338 4.58831
lowerneck -13.4268 2.66966 0.641018
upperneck 10.5755 3.69923 -1.68348
head 5.42864 1.70714 -0.317057
rclavicle -1.83876e-014 -2.3059e-014
rhumerus -33.2643 -6.3935 -85.1657
rradius 41.8989
rwrist -5.27864
rhand -8.76579 -41.144
rfingers 7.12502
rthumb 17.1719 -70.4052
lclavicle -1.83876e-014 -2.3059e-014
lhumerus -42.9958 9.86899 84.7208
lradius 50.4111
lwrist 3.84177
lhand -10.0632 -13.1524
lfingers 7.12502
lthumb 15.9228 16.213
rfemur -13.6675 2.54894 19.3704
rtibia 29.2612
rfoot -22.4883 1.00342
rtoes 20.3555
lfemur -5.78325 4.12491 -24.2063
ltibia 18.9557
lfoot -20.1583 3.7556
ltoes -24.7799
185
root -4.56932 17.8068 -15.981 7.66526 -6.55699 -0.383176
lowerback 10.4649 0.524853 -4.03659
upperback 0.286683 0.339847 2.22237
thorax -5.61794 0.304683 4.56977
lowerneck -13.2902 2.71356 0.630272
upperneck 10.1963 3.76549 -1.778
head 5.2897 1.73641 -0.343841
rclavicle -1.95803e-014 -3.18055e-015
rhumerus -34.1209 -5.32385 -85.312
rradius 43.1343
rwrist -5.67372
rhand -9.02378 -41.0156
rfingers 7.12502
rthumb 16.9235 -70.2983
lclavicle -1.95803e-014 -3.18055e-015
lhumerus -43.6417 8.95617 84.5219
lradius 50.5668
lwrist 3.96948
lhand -10.034 -12.6433
lfingers 7.12502
lthumb 15.9509 16.7199
rfemur -13.9617 2.60736 19.3326
rtibia 29.3491
rfoot -22.6342 1.00089
rtoes 20.318
lfemur -5.97844 4.20553 -24.2413
ltibia 18.8497
lfoot -20.1928 3.76844
ltoes -25.3468
186
root -4.56094 17.8039 -15.946 8.04835 -6.65847 -0.325738
lowerback 10.5192 0.487779 -3.99362
upperback 0.394637 0.294027 2.22315
thorax -5.52904 0.276378 4.55256
lowerneck -13.4341 2.76489 0.579083
upperneck 9.95699 3.84012 -1.78777
head 5.23872 1.77129 -0.33222
rclavicle -3.97569e-015 -1.98785e-015
rhumerus -35.0461 -3.92605 -85.5541
rradius 44.5526
rwrist -6.46259
rhand -9.69948 -40.5209
rfingers 7.12502
rthumb 16.273 -69.858
lclavicle -3.97569e-015 -1.98785e-015
lhumerus -44.4236 7.72895 84.4881
lradius 51.0561
lwrist 4.10578
lhand -9.89959 -11.934
lfingers 7.12502
lthumb 16.0803 17.4188
rfemur -14.2975 2.69079 19.1961
rtibia 29.3807
rfoot -22.7633 1.05024
rtoes 20.5689
lfemur -6.25497 4.33827 -24.3779
ltibia 18.7984
lfoot -20.2811 3.72631
ltoes -25.5795
187
root -4.5528 17.804 -15.9082 8.42507 -6.75321 -0.287258
lowerback 10.5843 0.446499 -3.96502
upperback 0.533463 0.242288 2.25412
thorax -5.41333 0.244634 4.57632
lowerneck -13.5566 2.84114 0.678452
upperneck 9.6084 3.94895 -2.04484
head 5.15878 1.81241 -0.420114
rclavicle -1.19271e-015 -6.75868e-015
rhumerus -36.0923 -2.36629 -85.7748
rradius 46.3802
rwrist -6.91636
rhand -9.7368 -40.4237
rfingers 7.12502
rthumb 16.2371 -69.7638
lclavicle -1.19271e-015 -6.75868e-015
lhumerus -45.4052 6.39797 84.6047
lradius 51.8943
lwrist 4.32143
lhand -9.65504 -11.1444
lfingers 7.12502
lthumb 16.3158 18.1892
rfemur -14.5886 2.81558 19.0809
rtibia 29.3637
rfoot -22.8515 1.07394
rtoes 20.382
lfemur -6.52609 4.49964 -24.4851
ltibia 18.7578
lfoot -20.39 3.5909
ltoes -25.0108
